<?xml version="1.0" standalone="no"?><!DOCTYPE svg PUBLIC "-//W3C//DTD SVG 1.1//EN" "http://www.w3.org/Graphics/SVG/1.1/DTD/svg11.dtd"><svg t="1759725553738" class="icon" viewBox="0 0 1024 1024" version="1.1" xmlns="http://www.w3.org/2000/svg" p-id="8796" xmlns:xlink="http://www.w3.org/1999/xlink" width="200" height="200"><path d="M396.501333 627.498667a42.666667 42.666667 0 0 1 60.330667-60.330667l170.666667 170.666667a42.666667 42.666667 0 0 1 0 60.330666l-128 128a42.666667 42.666667 0 0 1-60.330667 0l-298.666667-298.666666a42.666667 42.666667 0 0 1 0-60.330667l426.666667-426.666667A42.666667 42.666667 0 0 1 597.333333 128h298.666667a42.666667 42.666667 0 0 1 42.666667 42.666667v298.666666a42.666667 42.666667 0 0 1-12.501334 30.165334l-192 192a42.666667 42.666667 0 0 1-60.330666-60.330667L853.333333 451.669333V213.333333h-238.336l-384 384L469.333333 835.669333 537.002667 768l-140.501334-140.501333zM725.333333 384a42.666667 42.666667 0 1 1 0-85.333333 42.666667 42.666667 0 0 1 0 85.333333z" p-id="8797"></path></svg>